<?xml version="1.0" encoding="UTF-8"?>
<svg id="Layer_2" data-name="Layer 2" xmlns="http://www.w3.org/2000/svg" viewBox="0 0 196.75 165.86">
  <defs>
    <style>
      .cls-1 {
        fill: #ece56b;
      }

      .cls-1, .cls-2, .cls-3 {
        stroke-width: 0px;
      }

      .cls-2 {
        fill: #e073a9;
      }

      .cls-3 {
        fill: #231f20;
      }
    </style>
  </defs>
  <g id="Layer_1-2" data-name="Layer 1">
    <g>
      <path class="cls-3" d="m190.96,60.37c-3.9-12.4-9.39-23.44-16.3-32.81l-.07-.09c-6.74-9.04-13.8-15.56-21.57-19.95-8.32-4.69-17.87-7.07-28.39-7.07h-23.67c-5.59,0-10.74,1.59-14.99,4.52-3.41-1.81-7.31-2.93-11.69-3.32L57.3.12c-.9-.08-1.81-.12-2.7-.12-4.76,0-9.37,1.2-13.32,3.47-7.08,4.06-11.56,11.04-12.28,19.13-.2,2.2-.08,4.09.27,7.49l.02.2c1.86,16.63,2.06,36.17.6,58.22-5.23.83-10.12,3.35-14.07,7.31-2.51,2.51-4.67,5.62-6.81,9.77-2.53,4.83-4.34,8.48-5.53,11.16-2.02,4.57-3.06,8.19-3.37,11.72-.55,6.09.59,17.83,14.38,27.96,7.17,5.27,15.5,8.37,24.74,9.2,1.73.16,3.45.23,5.12.23,13.67,0,25.38-5.2,33.89-14.79,5.11,8.56,13.44,13.6,22.73,13.6h34.85c24.09,0,38.15-10.53,45.7-19.36,10.12-11.83,15.25-28,15.25-48.06,0-12.27-1.95-24.68-5.79-36.89Z"/>
      <g>
        <path class="cls-1" d="m46.56,13.19l16.97,1.53c1.95.18,3.31.62,4.1,1.34s1.32,2.09,1.6,4.13c.52,3.97.68,9.96.47,17.97-.21,8.01-.78,17.31-1.74,27.91-2.6,28.87-6.44,47.83-11.51,56.87-5.07,9.04-13.09,13.07-24.04,12.08-5.22-.47-9.79-2.15-13.71-5.03-3.92-2.88-5.76-5.65-5.52-8.32.09-1.02.63-2.64,1.6-4.85.97-2.21,2.61-5.51,4.92-9.89,1.06-2.07,2.02-3.53,2.87-4.39.85-.85,1.71-1.24,2.58-1.16.82.07,1.96,1.87,3.42,5.38,1.46,3.51,3.27,5.37,5.42,5.56,2.3.21,4.05-1.04,5.25-3.75s2.11-7.56,2.75-14.58c2.59-28.72,2.69-53.69.32-74.91-.19-1.88-.27-2.97-.25-3.27.08-.92.53-1.62,1.35-2.09.82-.47,1.86-.65,3.14-.53Z"/>
        <path class="cls-2" d="m127.03,133.97h-34.85c-3.34,0-5.78-4.93-7.33-14.8s-2.31-25.37-2.31-46.49c0-10.9.33-20.33,1-28.3.67-7.97,1.7-15.37,3.08-22.21.77-3.65,1.49-5.99,2.16-7.02.67-1.03,1.8-1.54,3.39-1.54h23.67c6.73,0,12.61,1.41,17.62,4.24,5.01,2.83,9.93,7.48,14.77,13.96,5.5,7.45,9.84,16.24,13.03,26.37,3.19,10.13,4.78,20.23,4.78,30.3,0,14.75-3.33,26.02-9.99,33.81-6.66,7.79-16.33,11.68-29.03,11.68Zm-22.21-65.54c0,18.2,1.31,30.73,3.93,37.59s7.2,10.29,13.72,10.29c6.17,0,11.24-3.05,15.23-9.14,3.98-6.09,5.98-13.99,5.98-23.71,0-6.17-.87-12.31-2.62-18.43-1.75-6.12-4.32-11.92-7.71-17.43-2.93-4.83-6.1-8.67-9.52-11.53-3.42-2.85-6.49-4.28-9.21-4.28-3.65,0-6.2,2.61-7.63,7.83-1.44,5.22-2.16,14.82-2.16,28.8Z"/>
      </g>
    </g>
  </g>
</svg>