<?xml version="1.0" encoding="UTF-8"?>
<svg id="Layer_2" data-name="Layer 2" xmlns="http://www.w3.org/2000/svg" viewBox="0 0 571.93 300.04">
  <defs>
    <style>
      .cls-1 {
        fill: #edaec9;
      }

      .cls-1, .cls-2, .cls-3, .cls-4, .cls-5, .cls-6, .cls-7 {
        stroke-width: 0px;
      }

      .cls-2 {
        fill: #b3d084;
      }

      .cls-3 {
        fill: #ece56b;
      }

      .cls-4 {
        fill: #b091c0;
      }

      .cls-5 {
        fill: #acd9df;
      }

      .cls-6 {
        fill: #e073a9;
      }

      .cls-7 {
        fill: #231f20;
      }
    </style>
  </defs>
  <g id="Layer_1-2" data-name="Layer 1">
    <g>
      <path class="cls-7" d="m570.06,236.34c-.96-3-2.36-5.71-4.1-8.04,3.12-6.22,4.75-13.25,4.75-20.74,0-13.41-5.34-25.05-15.44-33.68-9.24-7.89-20.79-11.89-34.33-11.89-12.76,0-24.13,3.68-33.55,10.75-6.48-6.79-15.15-10.52-24.55-10.52-4.05,0-9.48.75-15.43,3.64-3.33-1.14-6.26-1.39-7.75-1.51-2.48-.21-6.08-.3-11.32-.3-12.71,0-19.4,6.54-22.45,10.89-1.41-1.17-2.91-2.28-4.48-3.34l-.34-.23c-4.79-3.08-10.09-5.45-15.75-7.05-5.5-1.55-11.29-2.33-17.22-2.33-12.19,0-22.6,2.94-30.95,8.75-.24.17-.47.35-.71.52-5.5-4.32-11.86-7.14-19-8.44h1.2c4.34,0,8.13-.76,11.55-2.32,7.62-3.47,12.61-10.43,13.42-18.53,3.02-1.06,6.18-2.61,9.55-4.66,2.46-1.49,4.87-3.18,7.23-5.02.31,5.38.84,8.44,1.52,10.89,3.29,11.93,13.14,19.64,25.11,19.64h8.3c8.66,0,12.66-.43,16.44-1.77,9.7-3.42,15.96-12.34,15.96-22.71,0-1.9-.18-4.04-1.16-9.98-2.51-14.99-3.79-29.56-3.79-43.33,0-7.53.42-15.72,1.23-24.35.42-4,.5-5.56.5-6.88,0-2.62-.38-5.14-1.1-7.51,2.42-4.5,3.71-9.65,3.71-15.11,0-8.89-3.5-17-9.87-22.85-5.94-5.45-13.62-8.33-22.23-8.33s-16.14,2.97-22.15,8.58c-6.32,5.91-9.8,13.93-9.8,22.6,0,1.19.07,2.35.19,3.51-11.01-5.43-26.66-7.88-49.96-7.88-6.78,0-13.92.55-20.22,4.54-3.54,2.24-6.41,5.28-8.59,9.08-1.65-1.41-3.4-2.75-5.27-4.01l-.33-.22c-4.79-3.08-10.09-5.46-15.76-7.06-5.5-1.55-11.29-2.33-17.22-2.33-8.87,0-16.8,1.57-23.68,4.66-.42-3.52-.91-6.52-1.48-9.05l-.03-.15c-1.63-7.04-4.98-12.53-9.97-16.32-4.68-3.55-10.48-5.35-17.23-5.35h-16.83c-5.71,0-11.06,1.63-15.47,4.71-6.6,4.62-10.38,11.88-10.38,19.92,0,2.17.29,4.02.93,7.33l.04.2c3.3,16.2,5.23,35.41,5.74,57.23-5.05,1.28-9.67,4.2-13.2,8.43-2.24,2.69-4.09,5.93-5.83,10.2-2.07,4.98-3.52,8.73-4.45,11.48-1.58,4.67-2.28,8.32-2.28,11.83,0,6.04,2.16,17.48,16.62,26.23,7.52,4.55,15.98,6.86,25.14,6.86,14.46,0,26.76-5.5,35.23-15.44.93,1.01,1.87,1.93,2.78,2.75,7.29,6.58,16.51,10.58,27.46,11.97-3.71.54-7.19,1.9-10.19,3.99-1.56-1.08-3.29-1.97-5.15-2.66-2.96-1.09-6.08-1.6-9.8-1.6h-15.76c-7.77,0-14.52,2.85-19.18,7.96-.2-.13-.39-.27-.58-.41l-.34-.22c-4.79-3.08-10.09-5.46-15.75-7.05-5.5-1.55-11.29-2.33-17.22-2.33-12.19,0-22.6,2.94-30.95,8.75-1.14.8-2.22,1.64-3.25,2.52-2.1-3.77-4.38-7.35-6.85-10.7l-.07-.09c-6.66-8.92-13.63-15.37-21.31-19.7-8.22-4.63-17.65-6.98-28.04-6.98h-23.38c-8.97,0-16.82,4.15-21.52,11.39-2.26,3.48-3.76,7.61-5.16,14.25l-.03.17c-1.53,7.55-2.68,15.77-3.4,24.43-.71,8.43-1.07,18.44-1.07,29.76,0,22.2.83,38.31,2.54,49.27,1.13,7.23,2.7,12.7,4.94,17.23,4.87,9.84,13.73,15.71,23.7,15.71h34.42c19.91,0,32.88-7.28,40.95-14.77,1.38,1.64,2.78,3.07,4.13,4.29,9.23,8.32,21.53,12.54,36.55,12.54,2.44,0,5.76-.21,10.45-.67,4.15-.41,6.25-.47,7.14-.47.69,0,1.99.03,4.3.18,3.71.24,5.18.27,6.13.27,1.94,0,6.52,0,11.52-1.75,4.56,2.12,9.08,2.43,12.4,2.43,10.68,0,21.37-2.96,31.75-8.8,8.81-4.95,16.81-11.7,23.85-20.08,1.63,3.07,3.49,5.97,5.59,8.68,10.28,13.22,24.62,20.21,41.47,20.21,13.5,0,24.79-3.74,33.58-11.12,9.03,7.38,20.75,11.12,34.89,11.12,2.44,0,5.76-.21,10.45-.67,4.15-.41,6.25-.47,7.14-.47.69,0,1.99.03,4.3.18,3.71.24,5.18.27,6.13.27,2.74,0,10.76,0,17.77-4.92,6.49,3.54,13.51,3.55,17.03,3.55h4.72c6.63,0,11.33-.35,15.77-2.15,9.08-3.67,14.95-12.5,14.95-22.48,0-2.11-.25-4.19-1-7.98,2.13,5.17,4.82,9.89,8.09,14.12,10.41,13.44,25.38,20.55,43.29,20.55,14.91,0,27.43-4.45,37.21-13.24,10.31-9.26,15.76-21.83,15.76-36.38,0-5.62-.59-10.1-1.87-14.1Zm-260.42-6.16c-.23.29-.46.58-.68.89,0-.09,0-.19,0-.28,0-.33,0-.65.01-.97.22.12.45.25.67.36Zm-17.2-69.96c2.33,1.14,4.85,1.9,7.6,2.29-9.13,1.19-17.51,4.46-24.9,9.71-4.08-4.55-9.86-7.42-16.35-8.04,4-.39,6.05-.45,6.92-.45.69,0,1.99.03,4.3.18,3.7.24,5.18.27,6.13.27,2.55,0,9.67,0,16.31-3.97Z"/>
      <g>
        <path class="cls-3" d="m168.01,13.61h16.83c1.93,0,3.31.32,4.15.95.84.64,1.49,1.94,1.94,3.92.86,3.86,1.55,9.74,2.06,17.63.51,7.89.76,17.1.76,27.61,0,28.63-2.09,47.62-6.28,56.97-4.19,9.34-11.72,14.01-22.58,14.01-5.18,0-9.82-1.24-13.94-3.73s-6.17-5.05-6.17-7.69c0-1.02.38-2.65,1.14-4.91.76-2.26,2.08-5.65,3.96-10.17.86-2.13,1.68-3.66,2.44-4.57s1.57-1.37,2.44-1.37c.81,0,2.09,1.66,3.85,4.99,1.75,3.33,3.69,4.99,5.83,4.99,2.28,0,3.9-1.38,4.84-4.15.94-2.77,1.41-7.63,1.41-14.58,0-28.48-2.11-53.05-6.32-73.72-.36-1.83-.53-2.89-.53-3.2,0-.91.38-1.64,1.14-2.17s1.78-.8,3.05-.8Z"/>
        <path class="cls-2" d="m239.45,134.54c-9.55,0-16.9-2.32-22.05-6.97-5.15-4.65-7.73-11.28-7.73-19.91,0-6.29,1.82-11.96,5.45-16.98,3.63-5.03,8.87-9.14,15.73-12.34,3.6-1.68,8.05-3.1,13.33-4.26,4.98-1.17,7.46-2.97,7.46-5.41,0-3.25-1.38-6.1-4.15-8.57-2.77-2.46-6.13-3.69-10.09-3.69-2.74,0-5.22.57-7.43,1.71s-3.95,2.81-5.22,4.99c-.61,1.02-1.08,2.3-1.41,3.85-.33,1.55-.95,2.35-1.87,2.4-2.59,0-4.87-1.14-6.85-3.43s-2.97-5.1-2.97-8.45c0-5.28,2.33-9.54,7.01-12.79,4.67-3.25,10.86-4.87,18.58-4.87,3.96,0,7.74.51,11.35,1.52,3.6,1.02,6.9,2.49,9.9,4.42,4.92,3.3,8.42,7.38,10.47,12.22,2.06,4.85,3.08,12.17,3.08,21.97,0,18.48.66,34.09,1.98,46.84.15,1.07.23,1.68.23,1.83,0,2.08-.45,3.48-1.33,4.19-.89.71-2.7,1.07-5.45,1.07-.81,0-2.39-.08-4.72-.23-2.34-.15-4.24-.23-5.71-.23-2.28,0-5.37.19-9.25.57s-6.66.57-8.34.57Zm13.25-40.59c0-1.83-.5-3.22-1.49-4.19-.99-.96-2.48-1.45-4.46-1.45-4.37,0-8.29,1.55-11.77,4.65-3.48,3.1-5.22,6.85-5.22,11.27,0,3.66,1.32,6.68,3.96,9.06,2.64,2.39,6.04,3.58,10.2,3.58,3.15,0,5.39-.42,6.74-1.26,1.34-.84,2.02-2.22,2.02-4.15v-17.52Z"/>
        <path class="cls-5" d="m309.97,132.49h-14.09c-1.37,0-2.32-.18-2.86-.53-.53-.35-.93-1.02-1.18-1.98-.41-1.78-.71-5.71-.91-11.8-.2-6.09-.3-14.06-.3-23.91,0-11.42.22-21.29.65-29.59.43-8.3,1.05-14.28,1.87-17.93.66-3.05,1.61-4.96,2.86-5.75,1.24-.79,4.12-1.18,8.64-1.18,20.76,0,34.79,2.18,42.08,6.55,7.28,4.37,10.93,11.91,10.93,22.62,0,6.14-1.17,11.98-3.5,17.52-2.34,5.53-5.79,10.64-10.36,15.31-3.4,3.35-6.92,6.13-10.55,8.34-3.63,2.21-6.41,3.31-8.34,3.31-1.57,0-3.33-.81-5.25-2.44-1.93-1.62-4.44-4.44-7.54-8.45h-1.22c-.05.71-.09,1.44-.11,2.17-.03.74-.04,1.76-.04,3.08,0,4.26.44,9,1.33,14.2.89,5.21,1.33,8.19,1.33,8.95,0,.51-.28.89-.84,1.14-.56.25-1.42.38-2.59.38Zm.3-49.58c0,5.84.48,9.48,1.45,10.93.96,1.45,2.77,2.17,5.41,2.17,5.23,0,10.33-2.4,15.31-7.2,4.98-4.8,7.46-10.09,7.46-15.88,0-4.82-1.64-8.73-4.91-11.73-3.27-3-7.5-4.49-12.68-4.49-4.87,0-8.1,1.7-9.67,5.1-1.57,3.4-2.36,10.43-2.36,21.1Z"/>
        <path class="cls-4" d="m378.36,132.49c-2.13,0-3.54-1.24-4.23-3.73-.69-2.49-1.03-8.43-1.03-17.82v-17.9c0-8.83.15-17.18.46-25.06.3-7.87.71-14.6,1.22-20.18.05-.2.08-.46.08-.76.25-3.2,3.35-4.82,9.29-4.87h2.21c3.63,0,5.85.18,6.64.53.79.36,1.19,1.17,1.19,2.44,0,.66-.13,2.23-.39,4.72-.89,9.39-1.34,18.23-1.34,26.5,0,15.03,1.36,30.67,4.09,46.91.58,3.5.86,5.64.86,6.4,0,1.17-.5,1.93-1.51,2.28-1,.36-4.08.53-9.23.53h-8.3Zm-2.28-109.97c0-2.69.98-4.95,2.93-6.78,1.95-1.83,4.4-2.74,7.35-2.74,3.14,0,5.67.88,7.57,2.63,1.91,1.75,2.86,4.05,2.86,6.89s-.93,5.27-2.78,6.97c-1.86,1.7-4.41,2.55-7.65,2.55s-5.65-.86-7.5-2.59c-1.85-1.73-2.78-4.04-2.78-6.93Z"/>
        <path class="cls-6" d="m56.94,267.66H22.52c-3.3,0-5.71-4.87-7.23-14.62-1.52-9.75-2.28-25.06-2.28-45.92,0-10.76.33-20.08.99-27.95.66-7.87,1.68-15.18,3.05-21.93.76-3.6,1.47-5.91,2.13-6.93.66-1.02,1.78-1.52,3.35-1.52h23.38c6.65,0,12.45,1.4,17.4,4.19,4.95,2.79,9.81,7.39,14.58,13.78,5.43,7.36,9.72,16.04,12.87,26.05,3.15,10,4.72,19.98,4.72,29.93,0,14.57-3.29,25.7-9.86,33.39-6.58,7.69-16.13,11.54-28.67,11.54Zm-21.93-64.73c0,17.97,1.29,30.35,3.88,37.13s7.11,10.17,13.56,10.17c6.09,0,11.11-3.01,15.04-9.02,3.93-6.02,5.9-13.82,5.9-23.42,0-6.09-.86-12.16-2.59-18.2-1.73-6.04-4.26-11.78-7.62-17.21-2.89-4.77-6.03-8.57-9.41-11.39-3.38-2.82-6.41-4.23-9.1-4.23-3.61,0-6.12,2.58-7.54,7.73-1.42,5.15-2.13,14.63-2.13,28.44Z"/>
        <path class="cls-1" d="m138.58,269.72c-9.55,0-16.9-2.32-22.05-6.97-5.15-4.65-7.73-11.28-7.73-19.91,0-6.29,1.82-11.96,5.45-16.98,3.63-5.03,8.87-9.14,15.73-12.34,3.6-1.68,8.05-3.1,13.33-4.26,4.98-1.17,7.46-2.97,7.46-5.41,0-3.25-1.38-6.1-4.15-8.57-2.77-2.46-6.13-3.69-10.09-3.69-2.74,0-5.22.57-7.43,1.71s-3.95,2.81-5.22,4.99c-.61,1.02-1.08,2.3-1.41,3.85-.33,1.55-.95,2.35-1.87,2.4-2.59,0-4.87-1.14-6.85-3.43s-2.97-5.1-2.97-8.45c0-5.28,2.33-9.54,7.01-12.79,4.67-3.25,10.86-4.87,18.58-4.87,3.96,0,7.74.51,11.35,1.52,3.6,1.02,6.9,2.49,9.9,4.42,4.92,3.3,8.42,7.38,10.47,12.22,2.06,4.85,3.08,12.17,3.08,21.97,0,18.48.66,34.09,1.98,46.84.15,1.07.23,1.68.23,1.83,0,2.08-.45,3.48-1.33,4.19-.89.71-2.7,1.07-5.45,1.07-.81,0-2.39-.08-4.72-.23-2.34-.15-4.24-.23-5.71-.23-2.28,0-5.37.19-9.25.57s-6.66.57-8.34.57Zm13.25-40.59c0-1.83-.5-3.22-1.49-4.19-.99-.96-2.48-1.45-4.46-1.45-4.37,0-8.29,1.55-11.77,4.65-3.48,3.1-5.22,6.85-5.22,11.27,0,3.66,1.32,6.68,3.96,9.06,2.64,2.39,6.04,3.58,10.2,3.58,3.15,0,5.39-.42,6.74-1.26,1.34-.84,2.02-2.22,2.02-4.15v-17.52Z"/>
        <path class="cls-2" d="m186.18,265.6v-15.54c0-.81.13-1.36.38-1.64.25-.28.69-.42,1.29-.42.3,0,.79.05,1.45.15.66.1,1.22.15,1.68.15,5.38,0,10.05-1,14.01-3.01,3.96-2.01,5.94-4.12,5.94-6.36,0-1.12-1.69-3.11-5.06-5.98-3.38-2.87-6.11-5.75-8.19-8.64-4.16-5.84-7.29-12.15-9.37-18.92-2.08-6.78-3.12-14.05-3.12-21.82,0-2.59.25-4.33.76-5.22.51-.89,1.68-1.33,3.5-1.33h15.76c1.07,0,1.84.09,2.32.27.48.18.72.5.72.95,0,.66-.15,2.13-.46,4.42s-.46,4.32-.46,6.09c0,7.57,1.98,14.94,5.94,22.12,3.96,7.19,7.39,10.78,10.28,10.78,2.54,0,4.76-2.87,6.66-8.61,1.9-5.74,2.86-12.79,2.86-21.17,0-2.84-.18-5.71-.53-8.61-.36-2.89-.53-4.39-.53-4.49,0-.61.15-1.05.46-1.33.3-.28.81-.42,1.52-.42h13.48c1.68,0,2.74.5,3.2,1.49s.69,3.62.69,7.88c0,11.27-1.75,22.07-5.25,32.4-3.5,10.33-8.58,19.71-15.23,28.14-5.69,7.16-12.1,12.74-19.23,16.75-7.13,4.01-14.18,6.02-21.13,6.02-1.88,0-3.07-.2-3.58-.61-.51-.41-.76-1.57-.76-3.5Z"/>
        <path class="cls-4" d="m321.05,243.82c0,8.18-2.45,14.53-7.35,19.08-4.9,4.54-11.74,6.82-20.52,6.82-10.1,0-18.23-3.95-24.37-11.84-6.14-7.89-9.21-18.47-9.21-31.72,0-15.18,3.72-27.5,11.16-36.97,7.44-9.47,16.94-14.2,28.52-14.2,6.14,0,11.18,1.55,15.12,4.65,3.93,3.1,5.9,7.03,5.9,11.8,0,2.79-.95,5.33-2.86,7.62-1.9,2.28-3.82,3.43-5.75,3.43-.91,0-1.78-.84-2.59-2.51-.81-1.68-1.55-2.92-2.21-3.73-1.17-1.42-2.6-2.52-4.3-3.31-1.7-.79-3.44-1.18-5.22-1.18-5.23,0-9.66,2.88-13.29,8.64-3.63,5.76-5.45,13.01-5.45,21.74,0,7.92,1.8,14.14,5.41,18.66,3.6,4.52,8.58,6.78,14.93,6.78,3.05,0,5.79-.48,8.22-1.45,2.44-.96,4.57-2.41,6.4-4.34,1.22-1.27,2.22-2.73,3.01-4.38.79-1.65,1.28-2.48,1.49-2.48.91,0,1.64.8,2.17,2.4s.8,3.77.8,6.51Z"/>
        <path class="cls-3" d="m361.64,269.72c-9.55,0-16.9-2.32-22.05-6.97-5.15-4.65-7.73-11.28-7.73-19.91,0-6.29,1.82-11.96,5.45-16.98,3.63-5.03,8.87-9.14,15.73-12.34,3.6-1.68,8.05-3.1,13.33-4.26,4.98-1.17,7.46-2.97,7.46-5.41,0-3.25-1.38-6.1-4.15-8.57-2.77-2.46-6.13-3.69-10.09-3.69-2.74,0-5.22.57-7.43,1.71s-3.95,2.81-5.22,4.99c-.61,1.02-1.08,2.3-1.41,3.85-.33,1.55-.95,2.35-1.87,2.4-2.59,0-4.87-1.14-6.85-3.43s-2.97-5.1-2.97-8.45c0-5.28,2.33-9.54,7.01-12.79,4.67-3.25,10.86-4.87,18.58-4.87,3.96,0,7.74.51,11.35,1.52,3.6,1.02,6.9,2.49,9.9,4.42,4.92,3.3,8.42,7.38,10.47,12.22,2.06,4.85,3.08,12.17,3.08,21.97,0,18.48.66,34.09,1.98,46.84.15,1.07.23,1.68.23,1.83,0,2.08-.45,3.48-1.33,4.19-.89.71-2.7,1.07-5.45,1.07-.81,0-2.39-.08-4.72-.23-2.34-.15-4.24-.23-5.71-.23-2.28,0-5.37.19-9.25.57s-6.66.57-8.34.57Zm13.25-40.59c0-1.83-.5-3.22-1.49-4.19-.99-.96-2.48-1.45-4.46-1.45-4.37,0-8.29,1.55-11.77,4.65-3.48,3.1-5.22,6.85-5.22,11.27,0,3.66,1.32,6.68,3.96,9.06,2.64,2.39,6.04,3.58,10.2,3.58,3.15,0,5.39-.42,6.74-1.26,1.34-.84,2.02-2.22,2.02-4.15v-17.52Z"/>
        <path class="cls-5" d="m424.47,267.66c-4.01,0-6.39-.42-7.12-1.26-.74-.84-1.26-3.21-1.56-7.12-.56-7.31-.99-15.92-1.29-25.82-.3-9.9-.46-20.33-.46-31.3,0-2.39-.03-5.22-.08-8.49-.05-3.27-.08-5.39-.08-6.36,0-4.47.33-7.3.99-8.49.66-1.19,2.26-1.79,4.8-1.79,4.52,0,7.69.08,9.52.23s2.87.41,3.12.76c.25.25.61,1.35,1.07,3.27.46,1.93,1.55,2.89,3.27,2.89,1.22,0,3.57-1.5,7.04-4.49,3.48-3,6.97-4.49,10.47-4.49s6.71,1.37,9.18,4.11c2.46,2.74,3.69,6.14,3.69,10.2,0,3.71-1.26,7.13-3.77,10.28-2.51,3.15-4.73,4.72-6.66,4.72-.1,0-1.26-1.59-3.47-4.76-2.21-3.17-4.73-4.76-7.58-4.76-3.86,0-6.88,2.28-9.06,6.85-2.18,4.57-3.27,10.97-3.27,19.19,0,12.29,1.37,25.03,4.11,38.23.61,2.94.91,4.75.91,5.41,0,1.22-.47,2.02-1.41,2.4-.94.38-3.49.57-7.65.57h-4.72Z"/>
        <path class="cls-2" d="m474.73,223.87c0-14.98,3.39-26.87,10.17-35.68,6.78-8.81,15.9-13.21,27.38-13.21,8.27,0,15.03,2.23,20.26,6.7,5.23,4.47,7.84,10.2,7.84,17.21,0,5.79-1.59,10.66-4.76,14.62-3.17,3.96-8.24,7.34-15.19,10.13-2.13.86-5.1,1.95-8.91,3.27-10.1,3.55-15.16,7.41-15.16,11.58,0,3,1.62,5.48,4.87,7.46,3.25,1.98,7.41,2.97,12.49,2.97,3.35,0,6.48-.48,9.41-1.45,2.92-.96,5.45-2.33,7.58-4.11,3.66-3.15,6.02-6.7,7.08-10.66.2-.71.38-1.07.53-1.07,1.07,0,1.88.88,2.44,2.63.56,1.75.84,4.25.84,7.5,0,8.38-2.86,15.13-8.57,20.26-5.71,5.13-13.29,7.69-22.73,7.69-11.17,0-19.89-4.05-26.16-12.15-6.27-8.1-9.41-19.33-9.41-33.7Zm42.11-15.61c2.03-.71,3.54-1.7,4.53-2.97.99-1.27,1.49-2.84,1.49-4.72,0-2.69-1.08-4.89-3.24-6.59-2.16-1.7-4.96-2.55-8.42-2.55-4.87,0-9.09,2.04-12.64,6.13-3.55,4.09-5.33,8.69-5.33,13.82,0,1.02.25,1.87.76,2.55.51.69,1.09,1.03,1.75,1.03.46,0,.91-.05,1.37-.15.46-.1,1.02-.28,1.68-.53l18.05-6.02Z"/>
      </g>
    </g>
  </g>
</svg>