<?xml version="1.0" encoding="UTF-8"?>
<svg id="Layer_2" data-name="Layer 2" xmlns="http://www.w3.org/2000/svg" viewBox="0 0 886.41 165.51">
  <defs>
    <style>
      .cls-1 {
        fill: #edaec9;
      }

      .cls-1, .cls-2, .cls-3, .cls-4, .cls-5, .cls-6, .cls-7 {
        stroke-width: 0px;
      }

      .cls-2 {
        fill: #b3d084;
      }

      .cls-3 {
        fill: #ece56b;
      }

      .cls-4 {
        fill: #b091c0;
      }

      .cls-5 {
        fill: #acd9df;
      }

      .cls-6 {
        fill: #e073a9;
      }

      .cls-7 {
        fill: #231f20;
      }
    </style>
  </defs>
  <g id="Layer_1-2" data-name="Layer 1">
    <g>
      <g>
        <path class="cls-7" d="m291.85,85.28c0-7.55.42-15.77,1.24-24.42.42-3.99.5-5.6.5-6.9,0-2.63-.38-5.16-1.11-7.53,2.43-4.51,3.72-9.68,3.72-15.15,0-8.91-3.51-17.05-9.9-22.91-5.95-5.47-13.66-8.36-22.29-8.36s-16.19,2.98-22.21,8.61c-6.34,5.93-9.82,13.98-9.82,22.67,0,1.19.07,2.36.19,3.52-11.04-5.44-26.74-7.9-50.11-7.9-6.8,0-13.96.55-20.29,4.55-3.55,2.25-6.43,5.29-8.62,9.11-1.65-1.42-3.41-2.76-5.28-4.02l-.34-.22c-4.8-3.09-10.12-5.47-15.8-7.07-5.52-1.55-11.33-2.34-17.27-2.34-8.9,0-16.85,1.57-23.75,4.67-.42-3.52-.91-6.5-1.49-9.08l-.03-.15c-1.63-7.06-4.99-12.56-10-16.36-4.7-3.56-10.51-5.36-17.28-5.36h-16.88c-5.73,0-11.1,1.64-15.51,4.73-6.62,4.63-10.42,11.91-10.42,19.98,0,2.18.29,4.03.93,7.36l.04.19c3.31,16.25,5.24,35.51,5.76,57.4-5.06,1.29-9.7,4.21-13.22,8.44-2.25,2.7-4.11,5.96-5.86,10.25-2.07,4.99-3.53,8.76-4.46,11.51-1.58,4.69-2.28,8.34-2.28,11.86,0,6.06,2.17,17.54,16.67,26.31,7.55,4.56,16.03,6.88,25.22,6.88,14.5,0,26.84-5.52,35.33-15.49.94,1.01,1.87,1.93,2.79,2.76,9.26,8.35,21.59,12.58,36.66,12.58,2.45,0,5.78-.21,10.48-.68,4.17-.41,6.28-.47,7.16-.47.69,0,2,.03,4.32.18,3.72.24,5.19.27,6.15.27,2.56,0,9.7,0,16.35-3.98,3.56,1.74,7.55,2.6,12.14,2.6h14.13c4.36,0,8.16-.77,11.56-2.32,7.66-3.47,12.68-10.46,13.49-18.59,3.03-1.07,6.2-2.61,9.58-4.67,2.46-1.5,4.89-3.19,7.26-5.04.31,5.39.84,8.47,1.52,10.92,3.3,11.97,13.18,19.7,25.19,19.7h8.33c8.69,0,12.7-.43,16.5-1.77,9.72-3.43,16-12.37,16-22.78,0-1.94-.18-4.01-1.17-10.01-2.52-15.03-3.8-29.66-3.8-43.46Z"/>
        <path class="cls-7" d="m884.55,101.48c-.96-3.02-2.36-5.74-4.12-8.09,3.13-6.23,4.76-13.29,4.76-20.8,0-13.45-5.35-25.13-15.48-33.78-9.27-7.92-20.85-11.93-34.43-11.93-12.8,0-24.21,3.69-33.65,10.78-6.49-6.81-15.19-10.55-24.63-10.55-4.06,0-9.51.75-15.48,3.65-3.34-1.15-6.28-1.39-7.78-1.52-2.5-.21-6.1-.3-11.35-.3-12.74,0-19.45,6.55-22.51,10.92-1.42-1.17-2.92-2.29-4.5-3.35l-.33-.22c-4.8-3.09-10.12-5.47-15.8-7.08-5.51-1.55-11.33-2.34-17.27-2.34-12.22,0-22.67,2.95-31.05,8.78-.24.17-.47.35-.71.52-7.85-6.17-17.47-9.3-28.59-9.3-12.26,0-23.39,3.52-32.89,10.26-4.64-5.17-11.47-8.2-19.05-8.2h-13.52c-5.09,0-9.92,1.5-13.89,4.27-1.57-1.08-3.29-1.98-5.16-2.67-2.93-1.08-6.15-1.6-9.83-1.6h-15.81c-7.78,0-14.54,2.86-19.24,7.99-.2-.14-.39-.28-.59-.41l-.34-.22c-4.8-3.09-10.12-5.47-15.8-7.07-5.52-1.55-11.33-2.34-17.27-2.34-12.22,0-22.67,2.95-31.05,8.78-1.15.8-2.23,1.65-3.26,2.53-2.1-3.78-4.39-7.37-6.87-10.73l-.07-.09c-6.68-8.95-13.67-15.41-21.37-19.76-8.24-4.65-17.7-7-28.13-7h-23.45c-9,0-16.87,4.16-21.59,11.43-2.27,3.49-3.76,7.63-5.17,14.28l-.04.17c-1.54,7.58-2.69,15.82-3.41,24.5-.71,8.46-1.07,18.5-1.07,29.85,0,22.26.83,38.42,2.55,49.41,1.13,7.25,2.71,12.74,4.95,17.28,4.88,9.87,13.77,15.76,23.77,15.76h34.53c19.97,0,32.98-7.3,41.08-14.82,1.38,1.64,2.79,3.08,4.14,4.3,9.26,8.35,21.59,12.58,36.66,12.58,2.45,0,5.78-.21,10.48-.68,4.17-.41,6.28-.47,7.16-.47.69,0,2,.03,4.32.18,3.72.24,5.19.27,6.15.27,1.94,0,6.54,0,11.55-1.75,4.57,2.13,9.1,2.44,12.43,2.44,10.72,0,21.43-2.97,31.84-8.82,8.84-4.97,16.85-11.74,23.92-20.14,1.63,3.08,3.5,5.99,5.61,8.71,10.31,13.25,24.7,20.26,41.59,20.26,13.55,0,24.86-3.75,33.68-11.15,9.05,7.4,20.81,11.15,34.99,11.15,2.45,0,5.78-.21,10.48-.68,4.17-.41,6.28-.47,7.16-.47.69,0,2,.03,4.32.18,3.72.24,5.19.27,6.15.27,2.75,0,10.8,0,17.82-4.93,6.51,3.55,13.55,3.56,17.08,3.56h4.74c6.65,0,11.37-.35,15.84-2.17,9.1-3.69,14.97-12.54,14.97-22.54,0-2.09-.26-4.24-1-8.01,2.13,5.19,4.83,9.93,8.11,14.17,10.44,13.48,25.45,20.61,43.42,20.61,14.95,0,27.51-4.47,37.31-13.27,10.34-9.28,15.81-21.9,15.81-36.49,0-5.64-.59-10.13-1.87-14.12Zm-261.2-6.2c-.23.29-.46.59-.68.89,0-.09,0-.19,0-.29,0-.33,0-.66.01-.97.22.13.45.25.67.37Z"/>
      </g>
      <g>
        <path class="cls-3" d="m36.33,13.65h16.88c1.94,0,3.32.32,4.16.95.84.64,1.49,1.95,1.95,3.93.87,3.87,1.55,9.77,2.06,17.68.51,7.92.76,17.15.76,27.69,0,28.72-2.1,47.77-6.3,57.13-4.2,9.37-11.75,14.05-22.65,14.05-5.19,0-9.85-1.25-13.98-3.74s-6.19-5.07-6.19-7.71c0-1.02.38-2.66,1.15-4.93.76-2.26,2.09-5.66,3.97-10.2.87-2.14,1.68-3.67,2.44-4.58s1.58-1.37,2.44-1.37c.81,0,2.1,1.67,3.86,5,1.76,3.34,3.7,5,5.84,5,2.29,0,3.91-1.39,4.85-4.16.94-2.78,1.41-7.65,1.41-14.63,0-28.57-2.11-53.21-6.34-73.94-.36-1.83-.53-2.9-.53-3.21,0-.92.38-1.64,1.15-2.18s1.78-.8,3.06-.8Z"/>
        <path class="cls-2" d="m107.98,134.94c-9.57,0-16.95-2.33-22.11-6.99-5.17-4.66-7.75-11.32-7.75-19.97,0-6.31,1.82-11.99,5.46-17.03,3.64-5.04,8.9-9.17,15.77-12.37,3.62-1.68,8.07-3.11,13.37-4.28,4.99-1.17,7.49-2.98,7.49-5.42,0-3.26-1.39-6.12-4.16-8.59-2.78-2.47-6.15-3.7-10.12-3.7-2.75,0-5.23.57-7.45,1.72s-3.96,2.81-5.23,5c-.61,1.02-1.08,2.3-1.41,3.86-.33,1.55-.95,2.36-1.87,2.41-2.6,0-4.89-1.15-6.87-3.44s-2.98-5.12-2.98-8.48c0-5.3,2.34-9.57,7.03-12.83,4.68-3.26,10.9-4.89,18.64-4.89,3.97,0,7.76.51,11.38,1.53,3.62,1.02,6.92,2.5,9.93,4.43,4.94,3.31,8.44,7.4,10.5,12.26,2.06,4.86,3.09,12.21,3.09,22.04,0,18.54.66,34.19,1.99,46.98.15,1.07.23,1.68.23,1.83,0,2.09-.45,3.49-1.34,4.2-.89.71-2.71,1.07-5.46,1.07-.81,0-2.39-.08-4.74-.23-2.34-.15-4.25-.23-5.73-.23-2.29,0-5.38.19-9.28.57s-6.68.57-8.36.57Zm13.29-40.71c0-1.83-.5-3.23-1.49-4.2-.99-.97-2.48-1.45-4.47-1.45-4.38,0-8.31,1.55-11.8,4.66-3.49,3.11-5.23,6.87-5.23,11.3,0,3.67,1.32,6.7,3.97,9.09,2.65,2.39,6.06,3.59,10.24,3.59,3.16,0,5.41-.42,6.76-1.26,1.35-.84,2.02-2.23,2.02-4.16v-17.57Z"/>
        <path class="cls-5" d="m178.71,132.88h-14.13c-1.37,0-2.33-.18-2.86-.53-.53-.36-.93-1.02-1.18-1.99-.41-1.78-.71-5.73-.92-11.84-.2-6.11-.31-14.1-.31-23.98,0-11.46.22-21.35.65-29.67.43-8.33,1.06-14.32,1.87-17.99.66-3.06,1.62-4.98,2.86-5.77,1.25-.79,4.14-1.18,8.67-1.18,20.83,0,34.89,2.19,42.2,6.57,7.31,4.38,10.96,11.94,10.96,22.69,0,6.16-1.17,12.02-3.51,17.57-2.34,5.55-5.81,10.67-10.39,15.35-3.41,3.36-6.94,6.15-10.58,8.36-3.64,2.22-6.43,3.32-8.36,3.32-1.58,0-3.34-.81-5.27-2.44-1.94-1.63-4.46-4.46-7.56-8.48h-1.22c-.05.71-.09,1.44-.11,2.18-.03.74-.04,1.77-.04,3.09,0,4.28.45,9.03,1.34,14.25.89,5.22,1.34,8.21,1.34,8.97,0,.51-.28.89-.84,1.15-.56.26-1.43.38-2.6.38Zm.31-49.73c0,5.86.48,9.51,1.45,10.96.97,1.45,2.78,2.18,5.42,2.18,5.24,0,10.36-2.41,15.35-7.22,4.99-4.81,7.49-10.12,7.49-15.93,0-4.84-1.64-8.76-4.93-11.76-3.28-3-7.52-4.51-12.72-4.51-4.89,0-8.12,1.71-9.7,5.12-1.58,3.41-2.37,10.46-2.37,21.16Z"/>
        <path class="cls-4" d="m247.3,132.88c-2.14,0-3.55-1.25-4.24-3.74-.69-2.49-1.03-8.45-1.03-17.87v-17.95c0-8.86.15-17.24.46-25.13.31-7.89.71-14.64,1.22-20.24.05-.2.08-.46.08-.76.25-3.21,3.36-4.84,9.32-4.89h2.22c3.64,0,5.86.18,6.66.53.8.36,1.19,1.17,1.19,2.44,0,.66-.13,2.24-.4,4.74-.9,9.42-1.35,18.28-1.35,26.58,0,15.07,1.37,30.76,4.1,47.05.58,3.51.87,5.65.87,6.42,0,1.17-.5,1.94-1.51,2.29-1.01.36-4.09.53-9.26.53h-8.33Zm-2.29-110.3c0-2.7.98-4.96,2.94-6.8,1.96-1.83,4.42-2.75,7.37-2.75,3.15,0,5.68.88,7.6,2.64,1.91,1.76,2.87,4.06,2.87,6.91s-.93,5.28-2.79,6.99c-1.86,1.71-4.42,2.56-7.67,2.56s-5.67-.87-7.52-2.6c-1.86-1.73-2.79-4.05-2.79-6.95Z"/>
        <path class="cls-6" d="m369.9,132.88h-34.53c-3.31,0-5.73-4.89-7.26-14.67s-2.29-25.13-2.29-46.06c0-10.8.33-20.14.99-28.03.66-7.89,1.68-15.23,3.06-22,.76-3.62,1.48-5.93,2.14-6.95.66-1.02,1.78-1.53,3.36-1.53h23.45c6.67,0,12.49,1.4,17.45,4.2,4.96,2.8,9.84,7.41,14.63,13.83,5.45,7.38,9.75,16.09,12.91,26.12,3.16,10.03,4.74,20.04,4.74,30.02,0,14.62-3.3,25.78-9.89,33.49-6.59,7.71-16.18,11.57-28.76,11.57Zm-22-64.93c0,18.03,1.3,30.44,3.9,37.24,2.6,6.8,7.13,10.2,13.6,10.2,6.11,0,11.14-3.02,15.09-9.05,3.95-6.03,5.92-13.86,5.92-23.49,0-6.11-.87-12.19-2.6-18.26-1.73-6.06-4.28-11.81-7.64-17.26-2.9-4.79-6.05-8.59-9.43-11.42-3.39-2.83-6.43-4.24-9.13-4.24-3.62,0-6.14,2.59-7.56,7.75-1.43,5.17-2.14,14.68-2.14,28.53Z"/>
        <path class="cls-1" d="m451.78,134.94c-9.57,0-16.94-2.33-22.11-6.99-5.17-4.66-7.75-11.32-7.75-19.97,0-6.31,1.82-11.99,5.46-17.03,3.64-5.04,8.9-9.17,15.77-12.37,3.62-1.68,8.07-3.11,13.37-4.28,4.99-1.17,7.49-2.98,7.49-5.42,0-3.26-1.39-6.12-4.16-8.59-2.78-2.47-6.15-3.7-10.12-3.7-2.75,0-5.23.57-7.45,1.72s-3.96,2.81-5.23,5c-.61,1.02-1.08,2.3-1.41,3.86-.33,1.55-.95,2.36-1.87,2.41-2.6,0-4.89-1.15-6.87-3.44s-2.98-5.12-2.98-8.48c0-5.3,2.34-9.57,7.03-12.83,4.68-3.26,10.9-4.89,18.64-4.89,3.97,0,7.77.51,11.38,1.53,3.62,1.02,6.93,2.5,9.93,4.43,4.94,3.31,8.44,7.4,10.5,12.26,2.06,4.86,3.09,12.21,3.09,22.04,0,18.54.66,34.19,1.99,46.98.15,1.07.23,1.68.23,1.83,0,2.09-.45,3.49-1.34,4.2s-2.71,1.07-5.46,1.07c-.81,0-2.39-.08-4.74-.23s-4.25-.23-5.73-.23c-2.29,0-5.38.19-9.28.57s-6.68.57-8.36.57Zm13.29-40.71c0-1.83-.5-3.23-1.49-4.2-.99-.97-2.48-1.45-4.47-1.45-4.38,0-8.31,1.55-11.8,4.66-3.49,3.11-5.23,6.87-5.23,11.3,0,3.67,1.32,6.7,3.97,9.09,2.65,2.39,6.06,3.59,10.24,3.59,3.16,0,5.41-.42,6.76-1.26s2.02-2.23,2.02-4.16v-17.57Z"/>
        <path class="cls-2" d="m499.52,130.82v-15.58c0-.81.13-1.36.38-1.64.25-.28.69-.42,1.3-.42.31,0,.79.05,1.45.15.66.1,1.22.15,1.68.15,5.4,0,10.08-1,14.05-3.02,3.97-2.01,5.96-4.14,5.96-6.38,0-1.12-1.69-3.12-5.08-6-3.39-2.88-6.12-5.77-8.21-8.67-4.18-5.85-7.31-12.18-9.4-18.98-2.09-6.8-3.13-14.09-3.13-21.88,0-2.6.25-4.34.76-5.23.51-.89,1.68-1.34,3.51-1.34h15.81c1.07,0,1.85.09,2.33.27.48.18.73.5.73.95,0,.66-.15,2.14-.46,4.43s-.46,4.33-.46,6.11c0,7.59,1.99,14.98,5.96,22.19,3.97,7.21,7.41,10.81,10.31,10.81,2.55,0,4.77-2.88,6.68-8.63,1.91-5.75,2.86-12.83,2.86-21.23,0-2.85-.18-5.73-.53-8.63s-.53-4.4-.53-4.51c0-.61.15-1.06.46-1.34.31-.28.81-.42,1.53-.42h13.52c1.68,0,2.75.5,3.21,1.49s.69,3.63.69,7.91c0,11.3-1.76,22.14-5.27,32.5-3.51,10.36-8.61,19.77-15.28,28.22-5.7,7.18-12.13,12.78-19.29,16.8s-14.22,6.03-21.2,6.03c-1.88,0-3.08-.2-3.59-.61-.51-.41-.76-1.58-.76-3.51Z"/>
        <path class="cls-4" d="m634.79,108.97c0,8.2-2.46,14.58-7.37,19.13-4.91,4.56-11.78,6.84-20.59,6.84-10.13,0-18.28-3.96-24.44-11.88-6.16-7.92-9.24-18.52-9.24-31.81,0-15.23,3.73-27.59,11.19-37.08,7.46-9.5,17-14.25,28.61-14.25,6.16,0,11.22,1.55,15.16,4.66,3.95,3.11,5.92,7.05,5.92,11.84,0,2.8-.95,5.35-2.86,7.64s-3.83,3.44-5.77,3.44c-.92,0-1.78-.84-2.6-2.52s-1.55-2.93-2.22-3.74c-1.17-1.42-2.61-2.53-4.32-3.32-1.71-.79-3.45-1.18-5.23-1.18-5.24,0-9.69,2.89-13.33,8.67-3.64,5.78-5.46,13.05-5.46,21.81,0,7.94,1.81,14.18,5.42,18.71,3.62,4.53,8.61,6.8,14.97,6.8,3.06,0,5.81-.48,8.25-1.45,2.44-.97,4.58-2.42,6.42-4.35,1.22-1.27,2.23-2.74,3.02-4.39.79-1.65,1.29-2.48,1.49-2.48.92,0,1.64.8,2.18,2.41s.8,3.78.8,6.53Z"/>
        <path class="cls-3" d="m675.5,134.94c-9.57,0-16.94-2.33-22.11-6.99-5.17-4.66-7.75-11.32-7.75-19.97,0-6.31,1.82-11.99,5.46-17.03s8.9-9.17,15.77-12.37c3.62-1.68,8.07-3.11,13.37-4.28,4.99-1.17,7.49-2.98,7.49-5.42,0-3.26-1.39-6.12-4.16-8.59-2.78-2.47-6.15-3.7-10.12-3.7-2.75,0-5.23.57-7.45,1.72s-3.96,2.81-5.23,5c-.61,1.02-1.08,2.3-1.41,3.86-.33,1.55-.95,2.36-1.87,2.41-2.6,0-4.89-1.15-6.87-3.44s-2.98-5.12-2.98-8.48c0-5.3,2.34-9.57,7.03-12.83,4.68-3.26,10.9-4.89,18.64-4.89,3.97,0,7.77.51,11.38,1.53,3.62,1.02,6.93,2.5,9.93,4.43,4.94,3.31,8.44,7.4,10.5,12.26,2.06,4.86,3.09,12.21,3.09,22.04,0,18.54.66,34.19,1.99,46.98.15,1.07.23,1.68.23,1.83,0,2.09-.45,3.49-1.34,4.2s-2.71,1.07-5.46,1.07c-.81,0-2.39-.08-4.74-.23s-4.25-.23-5.73-.23c-2.29,0-5.38.19-9.28.57s-6.68.57-8.36.57Zm13.29-40.71c0-1.83-.5-3.23-1.49-4.2-.99-.97-2.48-1.45-4.47-1.45-4.38,0-8.31,1.55-11.8,4.66-3.49,3.11-5.23,6.87-5.23,11.3,0,3.67,1.32,6.7,3.97,9.09,2.65,2.39,6.06,3.59,10.24,3.59,3.16,0,5.41-.42,6.76-1.26s2.02-2.23,2.02-4.16v-17.57Z"/>
        <path class="cls-5" d="m738.52,132.88c-4.02,0-6.4-.42-7.14-1.26s-1.26-3.22-1.57-7.14c-.56-7.33-.99-15.96-1.3-25.89s-.46-20.39-.46-31.39c0-2.39-.03-5.23-.08-8.52s-.08-5.41-.08-6.38c0-4.48.33-7.32.99-8.52.66-1.2,2.27-1.79,4.81-1.79,4.53,0,7.71.08,9.55.23s2.88.41,3.13.76c.25.26.61,1.35,1.07,3.28.46,1.94,1.55,2.9,3.28,2.9,1.22,0,3.58-1.5,7.07-4.51,3.49-3,6.99-4.51,10.5-4.51s6.73,1.37,9.2,4.12,3.7,6.16,3.7,10.24c0,3.72-1.26,7.15-3.78,10.31-2.52,3.16-4.75,4.74-6.68,4.74-.1,0-1.26-1.59-3.48-4.77-2.22-3.18-4.75-4.77-7.6-4.77-3.87,0-6.9,2.29-9.09,6.87-2.19,4.58-3.28,11-3.28,19.25,0,12.32,1.37,25.1,4.12,38.34.61,2.95.92,4.76.92,5.42,0,1.22-.47,2.02-1.41,2.41s-3.5.57-7.68.57h-4.74Z"/>
        <path class="cls-2" d="m788.93,88.96c0-15.02,3.4-26.95,10.2-35.79,6.8-8.83,15.95-13.25,27.46-13.25,8.3,0,15.07,2.24,20.32,6.72,5.24,4.48,7.87,10.24,7.87,17.26,0,5.81-1.59,10.69-4.77,14.67s-8.26,7.36-15.24,10.16c-2.14.87-5.12,1.96-8.94,3.28-10.13,3.56-15.2,7.44-15.2,11.61,0,3.01,1.63,5.5,4.89,7.49,3.26,1.99,7.43,2.98,12.53,2.98,3.36,0,6.51-.48,9.43-1.45,2.93-.97,5.46-2.34,7.6-4.12,3.67-3.16,6.03-6.72,7.1-10.69.2-.71.38-1.07.53-1.07,1.07,0,1.88.88,2.44,2.64s.84,4.27.84,7.52c0,8.4-2.86,15.17-8.59,20.32-5.73,5.14-13.33,7.71-22.8,7.71-11.2,0-19.95-4.06-26.24-12.18-6.29-8.12-9.43-19.39-9.43-33.8Zm42.24-15.66c2.04-.71,3.55-1.71,4.54-2.98.99-1.27,1.49-2.85,1.49-4.74,0-2.7-1.08-4.9-3.25-6.61-2.16-1.71-4.98-2.56-8.44-2.56-4.89,0-9.12,2.05-12.68,6.15-3.56,4.1-5.35,8.72-5.35,13.86,0,1.02.25,1.87.76,2.56s1.09,1.03,1.76,1.03c.46,0,.92-.05,1.37-.15.46-.1,1.02-.28,1.68-.53l18.1-6.03Z"/>
      </g>
    </g>
  </g>
</svg>